<?xml version="1.0" encoding="utf-8"?>
<!-- Generator: Adobe Illustrator 23.0.3, SVG Export Plug-In . SVG Version: 6.00 Build 0)  -->
<svg version="1.1" id="Layer_1" xmlns="http://www.w3.org/2000/svg" xmlns:xlink="http://www.w3.org/1999/xlink" x="0px" y="0px"
	 viewBox="0 0 612 792" style="enable-background:new 0 0 612 792;" xml:space="preserve">
<style type="text/css">
	.st0{fill:#394C63;}
</style>
<g>
	<path class="st0" d="M118.7,347.7c-7.9,0-14.7,2.1-20.5,6.4c-3.5,2.6-7,7.3-9.9,11.4c-1.7-7.3-4-16.7-4-16.7l-22.4,0
		c-1.2,0-2.2,1-2.2,2.3v8.5c0,1.3,1,2.3,2.3,2.3l12.4,0c0,0,3.1,11,5,18.7c-2.6,4.7-5.1,8.8-7.3,12.9c-12.4,23.8-18,40.3-18,58.3
		c0,21.6,9.5,35.5,23.6,35.5c16.3,0,26.1-14.6,26.1-40c0-0.5,0-2.1-0.1-3.1c3.9,2,9.4,3.6,14.1,3.6c18.1,0,33.1-12,36.3-28.5
		c1.3-6.8,1.8-13,1.8-21.4c0-9-1-16.8-2.8-23.1C148,357.6,135.5,347.7,118.7,347.7z M77.6,474.8c-6.9,0-10.6-11.6-10.6-23
		c0-14.5,4.2-30.6,16.8-55c3.7,17,6.8,37.9,6.8,50.5C90.7,455.6,89.4,474.8,77.6,474.8z M141.2,416.8c-2,10.4-12.1,18.4-23.9,18.4
		c-5,0-10.1-1.7-14.6-3.2c-1.9-15.9-6-35.5-9.7-50.7c2.4-4.2,4.1-7.4,8.2-12.3c6-7.2,11.9-8.7,17.5-8.7c13.7,0,19.4,10.1,21.8,18.2
		c1,3.6,2.3,9.8,2.3,19.5C142.8,405.5,142.3,410.8,141.2,416.8z"/>
	<path class="st0" d="M558.9,428.4l-6.6-5.4c-0.4-0.3-0.9-0.6-1.5-0.6c-0.6,0-1.2,0.3-1.6,0.7h0c-2.1,2.6-6.2,6.8-6.7,7.3
		c-2.4,2.3-5.6,4.2-9.1,4.2c-6.2,0-10.4-1.9-10.4-13v-59.8h21.3c1.2,0,2.3-1,2.3-2.3v-8.5c0-1.2-1-2.3-2.3-2.3h-16.6v0H523l0-24.5
		c0-1.2-1-2.2-2.3-2.2h-8.5c-1.2,0-2.3,1-2.3,2.3v24.4h-10.3c-1.2,0-2.3,1-2.3,2.3v8.5c0,1.3,1,2.3,2.3,2.3H510v0v44.7
		c-3,3.4-11.3,12.2-15.2,16.2c-0.8,0.8-1.6,1.5-2.4,2.2c-4.3,3.7-9,6-14.6,7.7c-6.7,2.1-12.5,2.7-21.2,2.7
		c-13.2,0-19.6-8.9-19.6-8.9c1.1-1.2,16.2-16.3,16.2-16.3c12.4-12.8,22.4-25.1,24.5-27.4c0,0,2.6-2.7,4.7-6.6
		c4.6-8.6,4.7-17.6-3.2-23.9c-3.8-3-10.5-5-22.2-4.7c-17.4,0.4-34.5,10.5-38,28.3c-1,4.9-1.9,10.5-1.9,21c0,2.6,0,5.9,0.2,8.1
		c0.2,4.9,0.8,9.4,1.6,14c0.4,2.1,1.1,3.5,1.9,6.2c-1.8,2.3-3.7,4.4-6.4,6.6c-2,1.7-5.3,2.2-7,2.2l-0.6,0c-4.7,0-7.7-2.6-11.4-6.6
		l-0.6-0.7c-1.8-2-15.2-19.1-25.1-31.9l22.1-23.4l12.3-13c0.9-0.9,0.8-2.3-0.1-3.2l-6.2-5.8c-0.9-0.9-2.4-0.8-3.2,0.1l-1.6,1.7l0,0
		l-33,35l-7.4,7.9v-88c0-1.2-1-2.3-2.3-2.3h-6.3v0h-2.2c-1.3,0-2.3,1-2.3,2.3v28.9h0v72.8c-1.1,1.2-7,7.5-11.3,12.2
		c-3.7,4.1-8.8,9.1-14.5,12.1c-4.4,2.3-7,3.1-18.2,3.1c-11.7,0-21.7-8.1-23.7-18.4c-1.2-6-1.6-11.3-1.6-18.9
		c0-8.1,0.6-14.8,1.7-19.9c2.3-10.1,12-17.8,23.6-17.8c9,0,16.4,4,20,9.8c0.3,0.5,0.9,1.2,1.5,1.3c0.7,0.2,1.3,0,1.8-0.2l7.5-4
		c0.6-0.3,1.1-1,1.1-1.9c0-0.4-0.1-0.7-0.3-1l-0.5-1c-5.9-9.8-17.5-15.7-31.1-15.7c-17.6,0-32.9,11.6-36.5,27.5
		c-1.3,6-2,13.7-2,22.7c0,8.4,0.5,14.6,1.8,21.4c0.3,1.7,1.2,4.3,1.8,5.9c0,0-1.7,2.3-5.1,5.5c-4.5,4.2-9.2,3.7-11.4,3.2
		c-3.7-0.8-5.3-4.3-5.4-8.1c0,0,0-42.3,0-45.2c0-19.4-15.1-32.9-36.7-32.9c-11.3,0-22.4,4.8-29.5,12.8c-1.2,1.3-2.2,2.8-3,4.3
		c0,0-0.3,0.7-0.3,1.1c0,0.9,0.5,1.7,1.3,2v0l7.3,3.9h0c0.3,0.2,0.7,0.3,1.1,0.3c0.8,0,1.4-0.4,1.8-1c0,0,0.5-0.8,1.6-2
		c4.7-5.3,12.1-8.9,19.8-8.9c14.5,0,23.3,8.2,23.3,20.3c0,0.9,0,1.5,0,2.9l-12.5,0c-43.8,0-47.2,28-47.2,36.5c0,6.7,2.3,13,6.7,18
		c6.9,8,15.5,9.6,23.3,9.6c7.1,0,15.5-3.1,21.9-7.1c3.2-2,6.2-4.9,8.9-8.1c2,8.9,9.4,15.1,17.8,15.2c6.6,0,10.4-1.2,15.8-4.8
		c1.7-1.1,5.1-4,7.6-7.1c6.9,7.7,16.6,11.9,27.9,11.9c11.6,0,16.8-0.4,24.1-4.3c3.5-1.8,8.1-4.9,11.7-8.7c2.7-2.7,5.6-6,8.1-9.1
		l0,19.1c0,1.3,1,2.3,2.3,2.3h8.5c1.3,0,2.3-1,2.3-2.3v-32.3l8.1-8.3c9,11.5,22.6,28.8,24.8,31.4l0.6,0.7c3.9,4.2,10,11.5,20.6,11.5
		c0.4,0,4.1,0,6.7-1.1c7.6-3.3,12.9-9.1,14.5-10.9c1.1,1.1,3.1,3.1,4.4,4.1c7.1,5.6,15.8,7.9,26.1,7.9c9.7,0,16.4-0.4,23.4-2.7
		c5.7-1.9,15.6-7.7,21.2-13.3c1.8-1.9,4.9-4.7,7.3-7.7c0.8,15.6,8.3,23.7,23.7,23.7c8.8,0,13.6-4.9,16.5-7.7
		c0.4-0.4,8.7-8.7,8.7-8.7c0.3-0.4,0.5-0.9,0.5-1.4C559.6,429.4,559.3,428.8,558.9,428.4z M224.9,407.8c0,13.5-14.5,26.5-27.6,26.5
		c-9.6,0-13.3-2.4-15.2-4.6c-2.4-2.8-3.5-5.9-3.5-9.6c0-15.2,12.1-23.5,34.1-23.5l12.3,0V407.8z M431.4,413.7c0,0-0.9-5.4-1-12.9
		c-0.1-2.9,0-6,0.1-9.5c0.1-3.1,0.6-7.7,1-10.8c1.1-7.6,4.7-11.8,8.8-15.2c4.6-3.7,11.2-5.8,21.2-5.8c9.6,0,11,6,9.4,9.3
		c-4.2,8.4-14.8,17.9-25.5,29.6L431.4,413.7z"/>
</g>
</svg>
