<svg id="Layer_1" data-name="Layer 1" xmlns="http://www.w3.org/2000/svg" viewBox="0 0 271.7 103.3"><defs><style>.cls-1{fill:#394c63;}</style></defs><title>logo-packet</title><path class="cls-1" d="M47.71,56.76a17.38,17.38,0,0,0-11,3.6,29.41,29.41,0,0,0-5.32,6.41c-.92-4.11-2.15-9.4-2.15-9.4h-12A1.24,1.24,0,0,0,16,58.67v4.78a1.25,1.25,0,0,0,1.24,1.3h6.66s1.66,6.18,2.69,10.52c-1.4,2.64-2.74,5-3.93,7.25C16,95.92,13,105.2,13,115.33c0,12.15,5.11,20,12.68,20,8.76,0,14-8.21,14-22.51,0-.28,0-1.18-.06-1.74a17.33,17.33,0,0,0,7.58,2A19.65,19.65,0,0,0,66.74,97a63.13,63.13,0,0,0,1-12A50.08,50.08,0,0,0,66.2,72C63.46,62.33,56.74,56.76,47.71,56.76ZM25.63,128.27c-3.71,0-5.7-6.53-5.7-12.94,0-8.16,2.26-17.22,9-30.95,2,9.57,3.65,21.33,3.65,28.41C32.67,117.46,32,128.27,25.63,128.27ZM59.81,95.63A13,13,0,0,1,47,106a24.7,24.7,0,0,1-7.84-1.8A273.44,273.44,0,0,0,33.9,75.66a40.5,40.5,0,0,1,4.41-6.92c3.22-4,6.4-4.89,9.4-4.89,7.37,0,10.43,5.68,11.72,10.24a41.92,41.92,0,0,1,1.24,11A57,57,0,0,1,59.81,95.63Z" transform="translate(-13 -32)"/><path class="cls-1" d="M284.27,102.16l-3.55-3a1.3,1.3,0,0,0-.8-.34,1.21,1.21,0,0,0-.86.4h0c-1.13,1.46-3.33,3.82-3.6,4.11a7.2,7.2,0,0,1-4.89,2.36c-3.33,0-5.59-1.07-5.59-7.32V64.69h11.44a1.28,1.28,0,0,0,1.24-1.29V58.61a1.28,1.28,0,0,0-1.24-1.29H265V43.53a1.23,1.23,0,0,0-1.24-1.23h-4.57a1.28,1.28,0,0,0-1.23,1.29V57.32H252.4a1.28,1.28,0,0,0-1.23,1.29V63.4a1.24,1.24,0,0,0,1.23,1.29H258V89.84c-1.61,1.91-6.07,6.86-8.17,9.11-.43.45-.86.85-1.29,1.24a20.39,20.39,0,0,1-7.84,4.33A33.45,33.45,0,0,1,229.3,106a13.16,13.16,0,0,1-10.54-5c.59-.68,8.71-9.18,8.71-9.18,6.66-7.2,12-14.12,13.16-15.41a18.63,18.63,0,0,0,2.53-3.72c2.47-4.83,2.53-9.9-1.72-13.44-2-1.69-5.64-2.82-11.93-2.65-9.35.23-18.54,5.91-20.42,15.93a55.77,55.77,0,0,0-1,11.81c0,1.46,0,3.32.11,4.56a60.5,60.5,0,0,0,.86,7.88c.21,1.18.59,2,1,3.48a21.8,21.8,0,0,1-3.44,3.72,6.27,6.27,0,0,1-3.76,1.24h-.33c-2.52,0-4.13-1.47-6.12-3.72l-.32-.39c-1-1.13-8.17-10.75-13.49-18L194.47,70l6.61-7.31a1.3,1.3,0,0,0-.05-1.8l-3.33-3.26a1.17,1.17,0,0,0-1.72.05l-.86,1h0L177.38,78.36l-4,4.45V33.29A1.28,1.28,0,0,0,172.17,32H167.6a1.24,1.24,0,0,0-1.23,1.29V49.55h0v41c-.59.68-3.76,4.22-6.07,6.87a30.55,30.55,0,0,1-7.8,6.81c-2.36,1.29-3.76,1.74-9.78,1.74A13,13,0,0,1,130,95.58a52.68,52.68,0,0,1-.86-10.64A57.47,57.47,0,0,1,130,73.75a12.93,12.93,0,0,1,12.68-10c4.84,0,8.82,2.25,10.75,5.52a1.52,1.52,0,0,0,.81.73,1.38,1.38,0,0,0,1-.11l4-2.26a1.18,1.18,0,0,0,.59-1.06,1.06,1.06,0,0,0-.16-.57l-.27-.56c-3.17-5.51-9.41-8.83-16.72-8.83a20,20,0,0,0-19.61,15.47A64.82,64.82,0,0,0,122,84.83a63.06,63.06,0,0,0,1,12,23.43,23.43,0,0,0,1,3.32,25,25,0,0,1-2.74,3.1,6.36,6.36,0,0,1-6.13,1.8c-2-.45-2.85-2.42-2.9-4.56V75.1c0-10.92-8.11-18.51-19.72-18.51a21,21,0,0,0-15.85,7.2A11.37,11.37,0,0,0,75,66.21a2.23,2.23,0,0,0-.16.62,1.18,1.18,0,0,0,.7,1.12h0l3.92,2.2h0a1.11,1.11,0,0,0,1.56-.4,8.63,8.63,0,0,1,.86-1.12,14.26,14.26,0,0,1,10.64-5c7.79,0,12.52,4.61,12.52,11.42v1.63H98.34C74.8,76.67,73,92.43,73,97.21a15.63,15.63,0,0,0,3.6,10.13c3.71,4.5,8.33,5.4,12.52,5.4,3.82,0,8.33-1.75,11.77-4a21.5,21.5,0,0,0,4.78-4.55c1.08,5,5.06,8.49,9.57,8.55a12.87,12.87,0,0,0,8.49-2.7,21.16,21.16,0,0,0,4.08-4,19.18,19.18,0,0,0,15,6.7c6.23,0,9-.23,12.95-2.42a24.84,24.84,0,0,0,6.29-4.9,64.68,64.68,0,0,0,4.35-5.12v10.75a1.24,1.24,0,0,0,1.23,1.29h4.57a1.25,1.25,0,0,0,1.24-1.29V92.88l4.35-4.67c4.84,6.47,12.15,16.2,13.33,17.66l.32.4c2.1,2.36,5.37,6.47,11.07,6.47a10.18,10.18,0,0,0,3.6-.62,23.59,23.59,0,0,0,7.79-6.13,30.4,30.4,0,0,0,2.37,2.3c3.81,3.15,8.49,4.45,14,4.45,5.22,0,8.82-.23,12.58-1.52a35.25,35.25,0,0,0,11.39-7.48c1-1.07,2.63-2.65,3.92-4.34.43,8.78,4.46,13.34,12.74,13.34,4.73,0,7.31-2.76,8.87-4.33l4.67-4.9a1.39,1.39,0,0,0,.27-.79C284.65,102.72,284.49,102.39,284.27,102.16ZM104.78,90.57c0,7.6-7.79,14.91-14.83,14.91-5.16,0-7.14-1.35-8.17-2.59a8.17,8.17,0,0,1-1.88-5.4c0-8.55,6.51-13.22,18.33-13.22h6.61v6.3Zm111,3.32a55.77,55.77,0,0,1-.53-7.26c-.06-1.63,0-3.37.05-5.34,0-1.75.32-4.34.54-6.08a12.78,12.78,0,0,1,4.73-8.55c2.47-2.08,6-3.26,11.39-3.26,5.16,0,5.91,3.37,5,5.23-2.26,4.72-7.95,10.07-13.7,16.65Z" transform="translate(-13 -32)"/></svg>