<?xml version="1.0" encoding="UTF-8"?>
<svg width="214px" height="140px" viewBox="0 0 214 140" version="1.1" xmlns="http://www.w3.org/2000/svg" xmlns:xlink="http://www.w3.org/1999/xlink">
    <!-- Generator: Sketch 53.2 (72643) - https://sketchapp.com -->
    <title>logo-intel-lg</title>
    <desc>Created with Sketch.</desc>
    <g id="Page-1" stroke="none" stroke-width="1" fill="none" fill-rule="evenodd">
        <g id="6_Supporters" transform="translate(-533.000000, -396.000000)" fill="#0071C5" fill-rule="nonzero">
            <g id="logo-intel-lg" transform="translate(533.000000, 396.000000)">
                <path d="M101.786816,124.909286 C59.3423526,128.681258 15.5175819,122.851847 9.30619711,89.9328181 C6.2005047,73.8162103 13.7921973,56.670883 23.4543514,46.04078 L23.4543514,40.2113687 C5.51035083,55.6421633 -4.15180334,75.1878365 1.71450455,98.1625752 C8.61604324,127.652538 46.5745061,144.454959 104.202354,138.968454 C126.977432,136.911015 156.999125,129.367071 177.703741,118.051155 L177.703741,101.934547 C158.72451,113.250463 127.667586,122.50894 101.786816,124.909286 Z M212.901589,39.8684622 C202.894358,-8.82426758 107.9982,-11.9104265 46.5745061,25.1234806 L46.5745061,29.2383592 C107.653124,-1.96613663 194.612511,-1.96613663 202.549281,42.9546211 C205.309896,57.6996026 196.682973,73.1303972 181.844664,82.0459675 L181.844664,93.7047901 C199.788665,87.1895657 218.42282,65.9293598 212.901589,39.8684622 Z" id="Shape"></path>
                <path d="M176.296296,32.4074074 L164.62963,32.4074074 L164.62963,80.5827579 C164.62963,86.3098975 167.546296,91.0263653 176.296296,92.037037 L176.296296,32.4074074 Z" id="Shape"></path>
                <path d="M41.4814815,50.5555556 L29.8148148,50.5555556 L29.8148148,81.8810149 C29.8148148,87.6071741 32.6430976,92.3228346 41.1279461,93.3333333 L41.1279461,50.5555556 L41.4814815,50.5555556 Z" id="Shape"></path>
                <rect id="Rectangle-path" x="29.8148148" y="33.7037037" width="11.6666667" height="10.3703704"></rect>
                <path d="M108.773148,92.037037 C99.7453704,92.037037 95.9259259,85.912037 95.9259259,79.787037 L95.9259259,37.5925926 L107.037037,37.5925926 L107.037037,49.162037 L115.37037,49.162037 L115.37037,58.0092593 L107.037037,58.0092593 L107.037037,79.1064815 C107.037037,81.4884259 108.078704,82.849537 110.856481,82.849537 L115.37037,82.849537 L115.37037,92.037037 L108.773148,92.037037" id="Shape"></path>
                <path d="M128.608653,74.6866097 C128.608653,80.1111111 131.935431,84.1794872 137.923632,84.1794872 C142.581121,84.1794872 144.909866,82.8233618 147.571288,80.1111111 L154.224844,86.5527066 C149.900033,90.6210826 145.575221,93.3333333 137.923632,93.3333333 C127.610619,93.3333333 117.962963,87.5698006 117.962963,71.2962963 C117.962963,57.3960114 126.612586,49.2592593 137.590954,49.2592593 C148.901999,49.2592593 155.555556,58.4131054 155.555556,70.6182336 L155.555556,74.3475783 L128.608653,74.3475783 L128.608653,74.6866097 Z M136.925598,58.0740741 C133.266142,58.0740741 130.60472,60.1082621 129.274009,62.4814815 C128.608653,64.1766382 128.275975,65.1937322 128.275975,67.2279202 L144.577188,67.2279202 C144.577188,62.8205128 142.581121,58.0740741 136.925598,58.0740741 Z" id="Shape"></path>
                <path d="M70.2642934,59.1152263 C73.3225458,59.1152263 74.6817691,60.7613169 74.6817691,63.0658436 L74.6817691,92.037037 L85.5555556,92.037037 L85.5555556,63.0658436 C85.5555556,57.1399177 82.1574973,50.5555556 72.98274,50.5555556 L50.5555556,50.5555556 L50.5555556,92.037037 L61.429342,92.037037 L61.429342,59.1152263 L70.2642934,59.1152263 Z" id="Shape"></path>
                <path d="M187.314815,41.4814815 C184.871795,41.4814815 182.777778,39.3874644 182.777778,36.9444444 C182.777778,34.5014245 184.871795,32.4074074 187.314815,32.4074074 C189.757835,32.4074074 191.851852,34.5014245 191.851852,36.9444444 C191.851852,39.3874644 189.757835,41.4814815 187.314815,41.4814815 Z M187.314815,33.1054131 C185.220798,33.1054131 183.475783,34.8504274 183.475783,36.9444444 C183.475783,39.0384615 185.220798,40.7834758 187.314815,40.7834758 C189.408832,40.7834758 191.153846,39.0384615 191.153846,36.9444444 C190.804843,34.8504274 189.059829,33.1054131 187.314815,33.1054131 Z M189.059829,39.3874644 L188.361823,39.3874644 C188.361823,39.3874644 188.361823,39.3874644 188.361823,39.3874644 L187.314815,37.6424501 C187.314815,37.6424501 187.314815,37.6424501 187.314815,37.6424501 C187.314815,37.6424501 186.965812,37.6424501 186.965812,37.6424501 C186.965812,37.6424501 186.965812,37.6424501 186.616809,37.6424501 L186.616809,39.3874644 C186.616809,39.3874644 186.616809,39.7364672 186.267806,39.7364672 L185.569801,39.7364672 C185.569801,39.7364672 185.220798,39.7364672 185.220798,39.3874644 L185.220798,34.5014245 C185.220798,34.1524217 185.220798,34.1524217 185.569801,34.1524217 C185.918803,34.1524217 186.616809,34.1524217 186.965812,34.1524217 C188.361823,34.1524217 189.059829,34.5014245 189.059829,35.8974359 L189.059829,35.8974359 C189.059829,36.5954416 188.710826,37.2934473 188.012821,37.2934473 L189.059829,39.3874644 C189.408832,39.3874644 189.408832,39.3874644 189.059829,39.3874644 C189.408832,39.3874644 189.408832,39.3874644 189.059829,39.3874644 Z M188.012821,35.8974359 C188.012821,35.1994302 187.663818,35.1994302 186.965812,35.1994302 C186.965812,35.1994302 186.616809,35.1994302 186.616809,35.1994302 C186.616809,35.1994302 186.616809,35.1994302 186.267806,35.1994302 L186.267806,36.5954416 C186.267806,36.5954416 186.965812,36.5954416 186.965812,36.5954416 C187.663818,36.5954416 188.012821,36.2464387 188.012821,35.8974359 L188.012821,35.8974359 Z" id="Shape"></path>
            </g>
        </g>
    </g>
</svg>