<?xml version="1.0" encoding="UTF-8"?>
<svg width="240px" height="78px" viewBox="0 0 240 78" version="1.1" xmlns="http://www.w3.org/2000/svg" xmlns:xlink="http://www.w3.org/1999/xlink">
    <!-- Generator: Sketch 53.2 (72643) - https://sketchapp.com -->
    <title>logo-redhat</title>
    <desc>Created with Sketch.</desc>
    <g id="Page-1" stroke="none" stroke-width="1" fill="none" fill-rule="evenodd">
        <g id="6_Supporters" transform="translate(-520.000000, -716.000000)" fill-rule="nonzero">
            <g id="logo-redhat" transform="translate(520.000000, 716.000000)">
                <path d="M72.6436782,59.7797684 C71.1326499,59.4712666 69.5586621,59.2244651 67.9217148,59.2244651 C65.1514963,59.2244651 62.6331159,59.7180681 60.80729,60.4584725 C60.6184115,60.5818732 60.429533,60.7669743 60.429533,61.0137758 C60.429533,61.0754762 60.429533,61.1988769 60.4924925,61.2605773 C60.681371,61.877581 60.3665735,62.5562851 58.5407476,62.9264873 C55.8964482,63.4817906 54.1965414,66.1966069 53.2521487,67.0604121 C52.1188775,68.1093184 48.9079424,68.7880224 49.4116185,68.1093184 C49.7893756,67.6157154 51.2374443,66.0732062 52.1188775,64.4689965 C52.8743916,62.9881877 53.6299058,62.5562851 54.5742984,61.1371766 C54.889096,60.705274 55.9594077,59.2861655 56.2742052,58.1138584 C56.6519623,57.0032518 56.5260433,55.5841433 56.6519623,55.02884 C56.8408408,54.1650348 57.6593145,52.375724 57.722274,51.3268178 C57.7852335,50.7715144 55.2668531,52.1289226 54.0706223,52.1289226 C52.8743916,52.1289226 51.7411204,51.4502185 50.6708087,51.3885181 C49.348659,51.3268178 48.5301854,52.375724 47.3339546,52.1906229 C46.6414,52.0672222 46.0747644,51.5119189 44.8785337,51.4502185 C43.1786269,51.3885181 41.100963,52.375724 37.2604328,52.2523233 C33.4199027,52.1289226 29.9571295,47.5013948 29.4534535,46.8226908 C28.8868179,45.9588856 28.1942632,45.9588856 27.4387491,46.6375897 C26.683235,47.3162937 25.7388423,46.7609904 25.4870042,46.3290878 C24.9833282,45.4652826 23.6611784,42.9972678 21.5835145,42.4419645 C18.7503365,41.7015601 17.3022678,43.9844737 17.4911463,45.8354848 C17.6800249,47.6864959 18.8762556,48.1800989 19.4428912,49.1673048 C20.0095268,50.1545107 20.2613648,50.7715144 21.3316765,51.203417 C22.0871906,51.5119189 22.3390287,51.9438215 22.1501502,52.5608252 C21.9612716,53.1161285 21.2057575,53.1778289 20.6391219,53.2395292 C19.5688102,53.3012296 18.8132961,52.9927277 18.2466605,52.6225255 C17.6170653,52.1906229 17.0504297,51.6353196 16.4837941,50.7098141 C15.854199,49.6609078 14.7838873,49.2290052 13.5876566,49.2290052 C13.021021,49.2290052 12.4543854,49.3524059 12.0136688,49.5992074 C10.1248835,50.5864133 7.92130061,51.1417166 5.46587967,51.1417166 L2.75862069,51.1417166 C7.98426012,66.3200076 22.5908667,77.2409731 39.8417728,77.2409731 C53.5669463,77.3026735 65.6551724,70.3305317 72.6436782,59.7797684" id="Shape" fill="#FFFFFF"></path>
                <path d="M70.9701741,60.2279509 C69.4799867,59.851918 67.9277082,59.6639015 66.3133385,59.6639015 C63.5813283,59.6639015 61.0976827,60.1652788 59.2970396,60.9173448 C59.1107662,61.0426891 58.9244927,61.2307056 58.9244927,61.4813943 C58.9244927,61.5440664 58.9244927,61.6694108 58.9865839,61.7320829 C59.1728573,62.3588046 58.8624016,63.0481984 57.0617585,63.4242314 C54.4539306,63.9882809 52.7774698,66.7458561 51.8461027,67.6232665 C50.7284621,68.6886933 47.5618139,69.3780871 48.0585431,68.6886933 C48.4310899,68.187316 49.8591862,66.6205118 50.7284621,64.9283634 C51.4735558,63.4242314 52.2186495,62.9855262 53.1500166,61.5440664 C53.4604723,61.1053613 54.5160217,59.6639015 54.8264774,58.4731303 C55.1990243,57.3450313 55.074842,55.9035715 55.1990243,55.339522 C55.3852977,54.4621117 56.1924825,52.6446189 56.2545737,51.5791921 C56.3166648,51.0151426 53.8330192,52.3939303 52.6532875,52.3939303 C51.4735558,52.3939303 50.3559153,51.7045365 49.3003659,51.6418643 C47.9964519,51.5791921 47.1892671,52.6446189 46.0095354,52.4566024 C45.3265329,52.3312581 44.7677126,51.7672086 43.5879809,51.7045365 C41.9115201,51.6418643 39.8625125,52.6446189 36.0749529,52.5192746 C32.2873933,52.3939303 28.8723805,47.75619 28.3756514,47.004124 C27.8168311,46.1267137 27.1338286,46.1267137 26.3887349,46.8161076 C25.6436412,47.5055014 24.7122741,46.9414519 24.4639095,46.5027467 C23.9671804,45.6253364 22.6632664,43.1184498 20.6142588,42.5544003 C17.8201574,41.8023343 16.3920612,44.1212044 16.5783346,46.0013694 C16.764608,47.8815344 17.9443397,48.3829117 18.50316,49.3856663 C19.0619803,50.388421 19.3103448,51.0151426 20.3658942,51.4538478 C21.1109879,51.7672086 21.3593525,52.2059138 21.1730791,52.8326354 C20.9868056,53.3966849 20.2417119,53.4593571 19.6828917,53.5220293 C18.6273423,53.5847014 17.8822486,53.2713406 17.3234283,52.8953076 C16.7025169,52.5192746 16.1436966,51.892553 15.5848764,50.9524705 C14.963965,49.8870437 13.9084156,49.4483385 12.7286839,49.4483385 C12.1698636,49.4483385 11.6110434,49.5736828 11.1764054,49.8243715 C9.31367114,50.8271261 7.14048121,51.3911756 4.71892671,51.3911756 L1.98691651,51.3911756 C0.68300255,47.5055014 0,43.3064663 0,38.9194147 C0,17.422862 17.2613372,0 38.6206897,0 C59.917951,0 77.2413793,17.422862 77.2413793,38.9194147 C77.117197,46.8787797 74.881916,54.1487509 70.9701741,60.2279509" id="Shape" fill="#000000"></path>
                <path d="M49.2685958,57.0114943 C49.4890569,57.1661632 49.9299792,57.7332826 49.4155699,58.4035147 C49.1216217,58.7644088 48.8276735,59.0221904 48.3132642,59.3315283 C47.6518808,59.6924224 46.402601,60.1048729 44.7123989,59.3315283 C43.7570673,58.9190778 43.7570673,58.7644088 42.4343004,58.9190778 C41.5524559,59.0221904 41.1850206,58.3519583 41.4789688,57.8363952 C41.8464041,57.3208321 43.1691709,56.8568253 44.859373,57.5786137 C45.5942434,57.8879515 46.7700362,58.5581836 47.7988548,57.9395079 C48.2397771,57.6817263 48.4602383,57.5270574 49.0481346,57.0630506 C49.0481346,57.0630506 49.1216217,57.0114943 49.1216217,57.0114943 C49.1951087,57.0114943 49.1951087,57.0114943 49.2685958,57.0114943" id="Shape" fill="#000000"></path>
                <path d="M36.0315193,18.6484519 C31.5403028,18.9569755 31.1036568,19.4506133 30.2303647,20.3144795 C29.0451826,21.548574 27.4857324,18.7101566 27.4857324,18.7101566 C26.5500623,18.5250425 25.4272582,17.044129 26.0510383,15.6249203 C26.6748184,14.2674164 27.7976225,14.6376447 28.1095125,15.0695778 C28.5461585,15.5632156 29.4194506,16.4270818 30.6046327,16.4270818 C31.7898148,16.365377 33.162131,16.1802629 35.0334712,16.1802629 C36.9671893,16.1802629 38.2147495,16.8590149 38.2771275,17.4760621 C38.4018835,18.0314046 38.2147495,18.5250425 36.0315193,18.6484519 M40.7722477,11.3672942 L40.7722477,11.3672942 C40.6474917,11.3672942 40.6474917,11.3055895 40.6474917,11.2438848 C40.6474917,11.1821801 40.6474917,11.1821801 40.7098697,11.1204753 C41.5831618,10.6885423 42.8930999,10.3183139 44.3277941,10.1331997 C44.7644401,10.071495 45.2010861,10.071495 45.6377322,10.071495 L45.8872442,10.071495 C48.3823644,10.1331997 50.3784606,11.1204753 50.3160826,12.2311604 C50.2537046,13.4035502 48.2576084,14.2674164 45.7624882,14.2057116 C44.9515741,14.2057116 44.203038,14.0823022 43.579258,13.897188 C43.51688,13.897188 43.454502,13.8354833 43.454502,13.7120738 C43.454502,13.6503691 43.51688,13.5886644 43.579258,13.5269596 C45.1387081,13.1567313 46.1991342,12.6013888 46.0743782,12.0460462 C45.9496222,11.3055895 43.953526,10.9353612 41.5207838,11.1821801 C41.2712718,11.2438848 41.0217597,11.3055895 40.7722477,11.3672942 M60.9827217,28.5212081 C60.6084536,29.8170073 60.0470516,31.4213302 57.6143093,32.6554247 C57.2400413,32.8405389 57.1152853,32.5320153 57.3024193,32.2851964 C58.2380894,30.7425782 58.3628454,30.3723499 58.6747354,29.7553026 C59.0490035,28.8914364 59.2361375,27.5956372 58.4876014,24.942334 C57.0529073,19.759137 53.996385,12.8482077 51.7507768,10.5651328 C49.6299246,8.40546739 45.7624882,7.78842013 42.2693199,8.65228629 C40.9593817,8.96080992 38.4642615,10.2566092 33.785911,9.20762882 C25.6767703,7.41819177 24.4915881,11.428999 24.0549421,13.1567313 C23.6182961,14.8844636 22.495492,19.8825464 22.495492,19.8825464 C22.1212239,21.9188024 21.6221999,25.4359718 34.1601791,27.7807514 C40.0237116,28.8914364 40.2732237,30.3723499 40.5851137,31.4213302 C41.0217597,33.3341767 41.7702958,34.4448618 42.6435879,35.0002043 C43.51688,35.5555468 42.6435879,35.9874799 41.7079178,36.1108894 C39.2127976,36.3577083 30.0432307,33.7661098 24.5539662,30.6808735 C20.1251277,27.9658655 20.0003717,25.5593812 21.0607978,23.5231253 C14.3239732,22.7826686 9.27135468,24.1401725 8.3980626,27.2871136 C6.83861245,32.7171294 20.4370178,41.9111336 35.9067632,46.5389881 C52.1250448,51.4136614 68.8423504,48.0199015 70.7136906,37.9003264 C71.4622267,33.3958814 67.5324123,30.0021215 60.9827217,28.5212081" id="Shape" fill="#E93442"></path>
                <g id="g3880" transform="translate(76.321839, 55.172414)" fill="#000000">
                    <path d="M1.97044335,2.6272578 L2.36453202,2.6272578 L2.88998358,3.54679803 L3.2183908,3.54679803 L2.6272578,2.6272578 C2.95566502,2.56157635 3.15270936,2.43021346 3.15270936,2.03612479 C3.15270936,1.64203612 2.88998358,1.44499179 2.43021346,1.44499179 L1.64203612,1.44499179 L1.64203612,3.54679803 L1.97044335,3.54679803 C1.97044335,3.54679803 1.97044335,2.6272578 1.97044335,2.6272578 Z M1.97044335,2.36453202 L1.97044335,1.70771757 L2.43021346,1.70771757 C2.6272578,1.70771757 2.88998358,1.77339901 2.88998358,2.03612479 C2.88998358,2.36453202 2.6272578,2.36453202 2.36453202,2.36453202 L1.97044335,2.36453202 Z" id="Shape"></path>
                    <path d="M4.40065681,2.49589491 C4.40065681,3.61247947 3.48111658,4.5320197 2.36453202,4.5320197 C1.24794745,4.5320197 0.328407225,3.61247947 0.328407225,2.49589491 C0.328407225,1.37931034 1.24794745,0.459770115 2.36453202,0.459770115 C3.48111658,0.459770115 4.40065681,1.37931034 4.40065681,2.49589491 M2.36453202,0.78817734 C1.44499179,0.78817734 0.65681445,1.57635468 0.65681445,2.49589491 C0.65681445,3.41543514 1.44499179,4.20361248 2.36453202,4.20361248 C3.28407225,4.20361248 4.07224959,3.41543514 4.07224959,2.49589491 C4.07224959,1.57635468 3.28407225,0.78817734 2.36453202,0.78817734" id="Shape"></path>
                </g>
                <path d="M97.6536525,39.6249248 C97.6536525,36.0018731 97.5928565,33.3322561 97.4712644,30.9168884 L103.125297,30.9168884 L103.368481,36.0654354 L103.550869,36.0654354 C104.827586,32.2516969 107.867389,30.3448276 110.664007,30.3448276 C111.271967,30.3448276 111.69754,30.3448276 112.183908,30.4719522 L112.183908,36.8917455 C111.575948,36.7646208 110.967987,36.7010585 110.238435,36.7010585 C107.137836,36.7010585 104.949178,38.7986147 104.341218,41.8496056 C104.219626,42.4216664 104.15883,43.1844141 104.15883,43.8835995 L104.15883,57.9308699 L97.5928565,57.9308699 C97.5928565,57.9944322 97.6536525,39.6249248 97.6536525,39.6249248 Z" id="Shape" fill="#000000"></path>
                <path d="M122.44898,47.0742606 C122.638987,52.1658272 126.439127,54.4140514 130.745954,54.4140514 C133.849402,54.4140514 136.129486,53.8850575 138.156228,53.0915666 L139.169599,57.9847604 C136.889514,58.976624 133.659395,59.7701149 129.732583,59.7701149 C120.992259,59.7701149 115.862069,54.1495544 115.862069,45.4872788 C115.862069,37.7507426 120.358902,30.3448276 129.03589,30.3448276 C137.776214,30.3448276 140.689655,37.8829911 140.689655,44.0325455 C140.689655,45.3550303 140.562984,46.4130182 140.436312,47.0742606 L122.44898,47.0742606 Z M134.292752,42.1149425 C134.356087,39.5360971 133.216045,35.2380214 128.655876,35.2380214 C124.475721,35.2380214 122.702322,39.2054759 122.385644,42.1149425 C122.44898,42.1149425 134.292752,42.1149425 134.292752,42.1149425 Z" id="Shape" fill="#000000"></path>
                <path d="M163.860905,48.7780275 C163.860905,49.4534291 163.79569,50.1288307 163.665262,50.6814319 C162.947904,53.5672386 160.469759,55.4092429 157.600327,55.4092429 C153.165752,55.4092429 150.622392,51.9094348 150.622392,47.1202237 C150.622392,42.2696124 153.100537,38.5242037 157.665542,38.5242037 C160.79583,38.5242037 163.078332,40.6118086 163.730476,43.1906145 C163.860905,43.7432158 163.860905,44.3572173 163.860905,44.9098185 C163.860905,44.8484184 163.860905,48.7780275 163.860905,48.7780275 Z M170.83884,23.9109698 L163.79569,22.0689655 L163.79569,36.8049997 L163.665262,36.8049997 C162.426189,34.9015953 159.687186,33.4279919 155.904754,33.4279919 C149.252891,33.4279919 143.3836,38.647004 143.448814,47.3658242 C143.448814,55.4092429 148.731176,60.6896552 155.317825,60.6896552 C159.2959,60.6896552 162.687046,58.909051 164.317405,55.9618442 L164.447834,55.9618442 L164.773905,60.0756537 L171.034483,60.0756537 C170.904054,58.2950496 170.773625,55.4092429 170.773625,52.7690368 L170.773625,23.9109698 L170.83884,23.9109698 Z" id="Shape" fill="#000000"></path>
                <path d="M187.980296,33.5190412 C185.878489,33.5190412 183.908046,34.0786191 182.331691,35.0112488 C180.689655,35.9438786 179.310345,37.3739109 178.522167,38.8039432 L178.390805,38.8039432 L178.390805,26.4932303 L175.632184,25.7471264 L175.632184,60.6274799 L178.390805,60.6274799 L178.390805,44.4618972 C178.390805,43.4049168 178.456486,42.6588129 178.784893,41.8505338 C179.967159,38.555242 183.251232,35.8817033 187.2578,35.8817033 C192.972085,35.8817033 194.942529,40.2339755 194.942529,45.021475 L194.942529,60.6896552 L197.701149,60.6896552 L197.701149,44.6484231 C197.701149,34.7625476 190.607553,33.5190412 187.980296,33.5190412" id="Shape" fill="#000000"></path>
                <path d="M222.153777,52.4467811 C222.153777,54.6899644 222.216271,56.9991238 222.528736,59.1103551 L220.091508,59.1103551 L219.716549,55.0858203 L219.591563,55.0858203 C218.27921,57.2630277 215.342038,59.7701149 211.092512,59.7701149 C205.718112,59.7701149 203.218391,55.8115561 203.218391,52.0509252 C203.218391,45.5852791 208.655284,41.6267203 219.466577,41.7586722 L219.466577,41.0329364 C219.466577,38.2619453 218.966633,32.7199629 212.654838,32.7199629 C210.342596,32.7199629 207.905368,33.3797227 205.968084,34.8311943 L205.155675,32.7859389 C207.592903,31.0705634 210.530075,30.3448276 212.967303,30.3448276 C220.653945,30.3448276 222.091284,36.4146178 222.091284,41.4287923 C222.153777,41.4947683 222.153777,52.4467811 222.153777,52.4467811 Z M219.52907,44.1338075 C213.717219,43.9358796 206.09307,44.8595433 206.09307,51.6550693 C206.09307,55.6796041 208.592791,57.5269316 211.404977,57.5269316 C215.841982,57.5269316 218.341703,54.6239885 219.279098,51.9189732 C219.466577,51.3251894 219.52907,50.7314056 219.52907,50.2035978 C219.52907,50.1376218 219.52907,44.1338075 219.52907,44.1338075 Z" id="Shape" fill="#000000"></path>
                <path d="M232.426403,27.5862069 L232.426403,33.3050866 L240,33.3050866 L240,35.3736175 L232.426403,35.3736175 L232.426403,52.2260609 C232.426403,55.5113747 233.48174,57.5799057 236.337359,57.5799057 C237.703089,57.5799057 238.696348,57.3973883 239.317135,57.1540317 L239.627528,59.1617235 C238.758427,59.5267584 237.578932,59.7701149 235.964887,59.7701149 C234.040448,59.7701149 232.426403,59.1617235 231.371066,57.9449406 C230.191571,56.6064794 229.75702,54.4162701 229.75702,51.7393477 L229.75702,35.3736175 L225.287356,35.3736175 L225.287356,33.3050866 L229.75702,33.3050866 L229.75702,28.5596332 L232.426403,27.5862069 Z" id="Shape" fill="#000000"></path>
            </g>
        </g>
    </g>
</svg>