<?xml version="1.0" encoding="UTF-8"?>
<svg width="240px" height="43px" viewBox="0 0 240 43" version="1.1" xmlns="http://www.w3.org/2000/svg" xmlns:xlink="http://www.w3.org/1999/xlink">
    <!-- Generator: Sketch 53.2 (72643) - https://sketchapp.com -->
    <title>logo-dell</title>
    <desc>Created with Sketch.</desc>
    <g id="Page-1" stroke="none" stroke-width="1" fill="none" fill-rule="evenodd">
        <g id="6_Supporters" transform="translate(-206.000000, -733.000000)" fill-rule="nonzero">
            <g id="logo-dell" transform="translate(206.000000, 733.000000)">
                <path d="M53.7382237,0 L32.8400256,16.5811494 C30.5180036,8.12137931 23.5519376,2.03034483 14.9272844,2.03034483 L0,2.03034483 L0,39.9301149 L14.9272844,39.9301149 C23.5519376,39.9301149 31.1814385,33.8390805 32.5083082,25.7177011 L53.4065063,42.2988506 L74.3047044,25.7177011 L74.3047044,39.9301149 L97.856642,39.9301149 L97.856642,32.1471264 L82.2659227,32.1471264 L82.2659227,2.03034483 L73.6412696,2.03034483 L73.6412696,16.2427586 L53.7382237,32.823908 L49.7576146,29.1016092 L59.7091375,21.3186207 L69.6606604,13.1972414 L63.6897466,8.12137931 L43.7867008,24.0257471 L39.8060916,20.3034483 L59.7091375,5.07586207 L53.7382237,0 L53.7382237,0 L53.7382237,0 Z M7.96121833,9.81333333 L14.2638495,9.81333333 C15.5907192,9.81333333 16.917589,10.1517241 18.2444587,10.8285057 C19.5713284,11.5052874 20.5664807,12.182069 21.561633,13.1972414 C22.5567853,14.2124138 23.2202201,15.2275862 23.883655,16.9195402 C24.5470899,18.2731034 24.8788073,19.9650575 24.8788073,21.6570115 C24.8788073,23.0105747 24.5470899,24.7025287 24.2153724,26.056092 C23.5519376,27.0712644 22.5567853,28.4248276 21.8933504,29.44 C20.8981981,30.4551724 19.9030458,31.131954 18.5761761,31.8087356 C17.2493064,32.4855172 15.9224367,32.823908 14.5955669,32.823908 L7.96121833,32.823908 C7.96121833,32.823908 7.96121833,9.81333333 7.96121833,9.81333333 Z M125.057471,32.1471264 L125.057471,39.9301149 L101.505534,39.9301149 L101.505534,2.03034483 L110.130187,2.03034483 L110.130187,32.1471264 L125.057471,32.1471264 L125.057471,32.1471264 Z" id="Shape" fill="#007DB8"></path>
                <path d="M225.610359,42.2988506 C232.972501,42.2988506 238.996072,38.5167416 240,30.2648676 L239.665357,29.9210395 L237.6575,29.9210395 L237.322858,30.2648676 C236.318929,36.109945 232.637858,39.5482259 225.945002,39.5482259 C217.913575,39.5482259 212.224647,33.3593203 212.224647,22.7006497 C212.224647,12.041979 218.248218,5.85307346 225.945002,5.85307346 C232.303215,5.85307346 235.984286,9.29135432 237.322858,14.4487756 L237.322858,14.7926037 L239.330714,14.7926037 L240,14.4487756 C238.996072,6.88455772 232.972501,2.75862069 225.610359,2.75862069 C216.575004,2.75862069 208.543576,9.29135432 208.543576,22.3568216 C208.543576,35.7661169 216.575004,42.2988506 225.610359,42.2988506 L225.610359,42.2988506 Z M202.185363,41.2673663 L202.185363,4.13393303 L201.85072,3.79010495 L198.169649,3.79010495 L197.835007,4.13393303 L184.114652,37.4852574 L183.780009,37.4852574 L169.725011,4.13393303 L169.390368,3.79010495 L165.709297,3.79010495 L165.374654,4.13393303 L165.374654,41.2673663 L165.709297,41.6111944 L167.717154,41.6111944 L168.051797,41.2673663 L168.051797,9.63518241 L168.38644,9.63518241 L181.772152,41.2673663 L182.106795,41.6111944 L184.783937,41.6111944 L185.11858,41.2673663 L198.504292,9.63518241 L199.173578,9.63518241 L199.173578,41.2673663 L199.508221,41.6111944 L201.516077,41.6111944 L202.185363,41.2673663 L202.185363,41.2673663 Z M157.67787,41.2673663 L157.67787,39.5482259 L157.343227,39.2043978 L137.599302,39.2043978 L137.264659,38.8605697 L137.264659,24.4197901 L137.599302,24.075962 L156.004656,24.075962 L156.339299,23.3883058 L156.339299,21.6691654 L156.004656,21.3253373 L137.599302,21.3253373 L137.264659,20.9815092 L137.264659,7.22838581 L137.599302,6.88455772 L157.343227,6.88455772 L157.67787,6.54072964 L157.67787,4.13393303 L157.343227,3.79010495 L134.587516,3.79010495 L134.252874,4.13393303 L134.252874,41.2673663 L134.587516,41.6111944 L157.343227,41.6111944 L157.67787,41.2673663 L157.67787,41.2673663 Z" id="Shape" fill="#808080"></path>
            </g>
        </g>
    </g>
</svg>